<svg width="25" height="25" viewBox="0 0 25 25" fill="none" xmlns="http://www.w3.org/2000/svg">
<path d="M16.8229 4.16675C18.5488 4.16675 19.9479 5.56586 19.9479 7.29175V8.12488C19.9479 8.23994 19.8544 8.33342 19.7394 8.33342H18.594C18.4789 8.33342 18.3854 8.23994 18.3854 8.12488V7.29175C18.3854 6.4288 17.6859 5.72925 16.8229 5.72925L7.03125 5.72925C6.16831 5.72925 5.46875 6.4288 5.46875 7.29175L5.46875 17.7084C5.46875 18.5714 6.16831 19.2709 7.03125 19.2709H16.8229C17.6859 19.2709 18.3854 18.5714 18.3854 17.7084V16.8753C18.3854 16.7602 18.4789 16.6667 18.594 16.6667H19.7394C19.8544 16.6667 19.9479 16.7602 19.9479 16.8753V17.7084C19.9479 19.3804 18.6348 20.7457 16.9836 20.8293L16.8229 20.8334L7.03125 20.8334L6.87052 20.8293C5.21933 20.7457 3.90625 19.3804 3.90625 17.7084L3.90625 7.29175C3.90625 5.56586 5.30536 4.16675 7.03125 4.16675L16.8229 4.16675Z" fill="#336AFF"/>
<path d="M9.98637 8.33342C10.1586 8.33363 10.2984 8.46893 10.2987 8.63554V8.93563C10.299 9.07718 10.4022 9.1973 10.5418 9.23979C10.6359 9.26838 10.7269 9.30237 10.8144 9.3405C11.1608 9.48853 11.4501 9.70472 11.6811 9.98849C11.853 10.1947 11.9901 10.4356 12.0931 10.7087C12.1549 10.8735 12.0397 11.0452 11.8612 11.0759L11.1766 11.1939C11.0114 11.2224 10.8551 11.1161 10.7839 10.9691C10.7435 10.8858 10.6949 10.8077 10.6364 10.7362C10.5178 10.5883 10.3687 10.4739 10.1908 10.3923C10.016 10.3078 9.82031 10.2631 9.6049 10.257C9.39874 10.251 9.21003 10.279 9.04134 10.3425C8.87636 10.4058 8.74338 10.4946 8.6436 10.609C8.5469 10.7207 8.49828 10.8487 8.49813 10.9905C8.49822 11.1475 8.56733 11.2847 8.70463 11.3994C8.84205 11.511 9.06142 11.6068 9.36076 11.6883L10.552 12.0159C11.1479 12.182 11.5774 12.4066 11.8398 12.6903C12.1053 12.9743 12.2395 13.3512 12.2396 13.8195C12.2396 14.2301 12.1313 14.5917 11.9161 14.9028C11.7007 15.2139 11.3988 15.4579 11.0118 15.6332C10.8692 15.6982 10.7171 15.7501 10.557 15.7899C10.41 15.8264 10.2989 15.9512 10.2987 16.0981V16.3646C10.2984 16.5312 10.1586 16.6665 9.98637 16.6667H9.33634C9.16392 16.6667 9.02328 16.5314 9.02303 16.3646V16.0869C9.02269 15.9423 8.91579 15.8198 8.77177 15.7807C8.6328 15.7431 8.49927 15.6958 8.37199 15.6383C7.99091 15.463 7.67971 15.216 7.43917 14.8988C7.2545 14.6528 7.12094 14.3723 7.03939 14.0585C6.99802 13.8981 7.11671 13.7445 7.28556 13.7188L7.95695 13.6191C8.11881 13.5948 8.27074 13.696 8.33232 13.8429C8.43018 14.0768 8.57751 14.2723 8.77482 14.4278C9.04655 14.6392 9.37057 14.7451 9.74528 14.7452C10.0982 14.7451 10.391 14.6642 10.6222 14.5041C10.8559 14.3441 10.9729 14.1463 10.9731 13.911C10.973 13.751 10.9225 13.618 10.8195 13.5153C10.7195 13.4096 10.5599 13.3234 10.3444 13.2569L8.67717 12.7585C7.71476 12.4713 7.23368 11.9029 7.23368 11.0535C7.2338 10.655 7.33011 10.3089 7.5236 10.016C7.72045 9.72293 7.9976 9.49761 8.35368 9.3405C8.48189 9.28337 8.61898 9.23668 8.76363 9.20113C8.91165 9.16441 9.02298 9.04076 9.02303 8.8929V8.63554C9.02328 8.4688 9.16392 8.33342 9.33634 8.33342H9.98637Z" fill="#336AFF"/>
<path d="M18.9052 9.79216C19.2289 9.54944 19.6796 9.59554 19.9479 9.88676L19.9988 9.9478L21.4583 12.0311C21.6667 12.3089 21.6667 12.6913 21.4583 12.969L19.9988 15.0524C19.7398 15.3973 19.2503 15.4668 18.9052 15.208C18.5603 14.9491 18.4908 14.4595 18.7496 14.1145L19.3742 13.2813H14.3229C13.8914 13.2813 13.5417 12.9316 13.5417 12.5001C13.5417 12.0686 13.8914 11.7188 14.3229 11.7188L19.3742 11.7188L18.7496 10.8857L18.7048 10.8196C18.5002 10.4805 18.5818 10.035 18.9052 9.79216Z" fill="#336AFF"/>
</svg>
