<svg width="20" height="20" viewBox="0 0 20 20" fill="none" xmlns="http://www.w3.org/2000/svg">
<path d="M15.2398 4.74219C13.7293 4.74232 12.5046 5.93492 12.5043 7.40616L12.5077 7.54413C12.5811 8.95174 13.7764 10.0709 15.2398 10.071C16.7032 10.0709 17.8984 8.95176 17.9719 7.54413L17.9753 7.40616C17.975 5.9349 16.7503 4.74228 15.2398 4.74219ZM15.4339 5.62365C16.3863 5.71743 17.0989 6.49405 17.1032 7.39849L17.1006 7.49814L17.0827 7.67017C16.9519 8.5191 16.1933 9.19883 15.2398 9.19889C14.2225 9.19877 13.4271 8.42496 13.3789 7.49814L13.3764 7.40616C13.3766 6.43822 14.1889 5.61441 15.2398 5.61428L15.4339 5.62365Z" fill="#797A7B"/>
<path d="M14.6134 10.7142C13.7772 10.7664 12.9692 10.9977 12.2995 11.3589L12.7134 12.1271C13.2682 11.8278 13.9522 11.6294 14.6654 11.5846L14.9728 11.5752C15.9097 11.5752 16.8182 11.8471 17.4809 12.2736C18.1523 12.7057 18.5029 13.2449 18.5029 13.7665L18.5004 14.4189C18.4884 14.5727 18.4382 14.6649 18.3922 14.7136C18.3502 14.7579 18.2905 14.7893 18.1955 14.7894H12.5064V15.6615H18.1955C18.5184 15.6614 18.8119 15.5395 19.0267 15.3123C19.2369 15.0897 19.3478 14.7935 19.3707 14.4785L19.3716 14.4632V14.4487L19.375 13.7691V13.7665C19.375 12.8323 18.757 12.0579 17.9527 11.5403C17.1399 11.0172 16.0656 10.7032 14.9728 10.7031L14.6134 10.7142Z" fill="#797A7B"/>
<path d="M4.76023 4.74219C6.27075 4.74232 7.49545 5.93492 7.49574 7.40616L7.49233 7.54413C7.41891 8.95174 6.22361 10.0709 4.76023 10.071C3.29682 10.0709 2.10156 8.95176 2.02813 7.54413L2.02472 7.40616C2.02501 5.9349 3.24968 4.74228 4.76023 4.74219ZM4.56605 5.62365C3.61375 5.71743 2.90109 6.49405 2.89681 7.39849L2.89937 7.49814L2.91725 7.67017C3.04807 8.5191 3.80669 9.19883 4.76023 9.19889C5.77749 9.19877 6.57289 8.42496 6.62109 7.49814L6.62365 7.40616C6.62336 6.43822 5.81105 5.61441 4.76023 5.61428L4.56605 5.62365Z" fill="#797A7B"/>
<path d="M5.38659 10.7142C6.22283 10.7664 7.03082 10.9977 7.70054 11.3589L7.28663 12.1271C6.73179 11.8278 6.04782 11.6294 5.33464 11.5846L5.0272 11.5752C4.09032 11.5752 3.18184 11.8471 2.51908 12.2736C1.8477 12.7057 1.49712 13.2449 1.49709 13.7665L1.49965 14.4189C1.51157 14.5727 1.56183 14.6649 1.60781 14.7136C1.64982 14.7579 1.70952 14.7893 1.80454 14.7894H7.49358V15.6615H1.80454C1.48158 15.6614 1.18811 15.5395 0.973326 15.3123C0.763077 15.0897 0.652233 14.7935 0.629258 14.4785L0.628407 14.4632V14.4487L0.625 13.7691V13.7665C0.625026 12.8323 1.24304 12.0579 2.04726 11.5403C2.8601 11.0172 3.93443 10.7032 5.0272 10.7031L5.38659 10.7142Z" fill="#797A7B"/>
<path d="M10.3418 17.8418L9.4697 17.8418L9.4697 2.1543L10.3418 2.1543L10.3418 17.8418Z" fill="#797A7B"/>
</svg>
