<svg width="24" height="24" viewBox="0 0 24 24" fill="none" xmlns="http://www.w3.org/2000/svg">
<path opacity="0.15" d="M18.2877 5.69141C16.4751 5.69156 15.0054 7.12268 15.0051 8.88817L15.0092 9.05373C15.0973 10.7429 16.5316 12.0858 18.2877 12.086C20.0438 12.0859 21.4781 10.7429 21.5662 9.05373L21.5703 8.88817C21.57 7.12266 20.1004 5.69152 18.2877 5.69141ZM18.5207 6.74916C19.6635 6.86169 20.5187 7.79364 20.5238 8.87897L20.5207 8.99855L20.4993 9.20499C20.3423 10.2237 19.432 11.0394 18.2877 11.0394C17.067 11.0393 16.1125 10.1107 16.0547 8.99855L16.0516 8.88817C16.0519 7.72665 17.0267 6.73807 18.2877 6.73792L18.5207 6.74916Z" fill="#797A7B"/>
<g opacity="0.15">
<path d="M17.5361 12.857C16.5326 12.9196 15.563 13.1973 14.7594 13.6307L15.256 14.5525C15.9219 14.1934 16.7426 13.9553 17.5984 13.9015L17.9674 13.8903C19.0916 13.8903 20.1818 14.2165 20.9771 14.7283C21.7828 15.2468 22.2035 15.8939 22.2035 16.5198L22.2004 17.3027C22.1861 17.4872 22.1258 17.5979 22.0706 17.6563C22.0202 17.7095 21.9486 17.7472 21.8346 17.7472H15.0077V18.7937H21.8346C22.2221 18.7936 22.5743 18.6474 22.832 18.3747C23.0843 18.1076 23.2173 17.7522 23.2449 17.3742L23.2459 17.3558V17.3384L23.25 16.5229V16.5198C23.25 15.3987 22.5084 14.4695 21.5433 13.8484C20.5679 13.2207 19.2787 12.8438 17.9674 12.8438L17.5361 12.857Z" fill="#797A7B"/>
<path d="M17.5361 12.857C16.5326 12.9196 15.563 13.1973 14.7594 13.6307L15.256 14.5525C15.9219 14.1934 16.7426 13.9553 17.5984 13.9015L17.9674 13.8903C19.0916 13.8903 20.1818 14.2165 20.9771 14.7283C21.7828 15.2468 22.2035 15.8939 22.2035 16.5198L22.2004 17.3027C22.1861 17.4872 22.1258 17.5979 22.0706 17.6563C22.0202 17.7095 21.9486 17.7472 21.8346 17.7472H15.0077V18.7937H21.8346C22.2221 18.7936 22.5743 18.6474 22.832 18.3747C23.0843 18.1076 23.2173 17.7522 23.2449 17.3742L23.2459 17.3558V17.3384L23.25 16.5229V16.5198C23.25 15.3987 22.5084 14.4695 21.5433 13.8484C20.5679 13.2207 19.2787 12.8438 17.9674 12.8438L17.5361 12.857Z" fill="black" fill-opacity="0.2"/>
</g>
<path d="M5.7123 5.69141C7.52492 5.69156 8.99456 7.12268 8.99491 8.88817L8.99083 9.05373C8.90271 10.7429 7.46835 12.0858 5.7123 12.086C3.95621 12.0859 2.52189 10.7429 2.43378 9.05373L2.42969 8.88817C2.43004 7.12266 3.89964 5.69152 5.7123 5.69141ZM5.47929 6.74916C4.33652 6.86169 3.48133 7.79364 3.4762 8.87897L3.47927 8.99855L3.50073 9.20499C3.65771 10.2237 4.56805 11.0394 5.7123 11.0394C6.93301 11.0393 7.88749 10.1107 7.94534 8.99855L7.9484 8.88817C7.94805 7.72665 6.97329 6.73807 5.7123 6.73792L5.47929 6.74916Z" fill="#797A7B"/>
<path d="M6.46391 12.857C7.46739 12.9196 8.43699 13.1973 9.24064 13.6307L8.74396 14.5525C8.07815 14.1934 7.25738 13.9553 6.40157 13.9015L6.03264 13.8903C4.90838 13.8903 3.81821 14.2165 3.02289 14.7283C2.21724 15.2468 1.79654 15.8939 1.79651 16.5198L1.79958 17.3027C1.81389 17.4872 1.87419 17.5979 1.92937 17.6563C1.97978 17.7095 2.05142 17.7472 2.16545 17.7472H8.9923V18.7937H2.16545C1.7779 18.7936 1.42573 18.6474 1.16799 18.3747C0.915692 18.1076 0.78268 17.7522 0.75511 17.3742L0.754088 17.3558V17.3384L0.75 16.5229V16.5198C0.750031 15.3987 1.49164 14.4695 2.45671 13.8484C3.43211 13.2207 4.72132 12.8438 6.03264 12.8438L6.46391 12.857Z" fill="#797A7B"/>
<path d="M6.46391 12.857C7.46739 12.9196 8.43699 13.1973 9.24064 13.6307L8.74396 14.5525C8.07815 14.1934 7.25738 13.9553 6.40157 13.9015L6.03264 13.8903C4.90838 13.8903 3.81821 14.2165 3.02289 14.7283C2.21724 15.2468 1.79654 15.8939 1.79651 16.5198L1.79958 17.3027C1.81389 17.4872 1.87419 17.5979 1.92937 17.6563C1.97978 17.7095 2.05142 17.7472 2.16545 17.7472H8.9923V18.7937H2.16545C1.7779 18.7936 1.42573 18.6474 1.16799 18.3747C0.915692 18.1076 0.78268 17.7522 0.75511 17.3742L0.754088 17.3558V17.3384L0.75 16.5229V16.5198C0.750031 15.3987 1.49164 14.4695 2.45671 13.8484C3.43211 13.2207 4.72132 12.8438 6.03264 12.8438L6.46391 12.857Z" fill="#797A7B" fill-opacity="0.2"/>
<path d="M12.4102 21.4109L11.3636 21.4109L11.3636 2.58594L12.4102 2.58594L12.4102 21.4109Z" fill="#797A7B"/>
<path d="M12.4102 21.4109L11.3636 21.4109L11.3636 2.58594L12.4102 2.58594L12.4102 21.4109Z" fill="black" fill-opacity="0.2"/>
</svg>
