<svg width="16" height="16" viewBox="0 0 16 16" fill="none" xmlns="http://www.w3.org/2000/svg">
<path d="M2.62195 6.83485L2.62196 14.2144H1.62196L1.62195 6.83485H2.62195Z" fill="#2F9752"/>
<path d="M6.83906 2.79774C7.41858 1.7835 8.7387 1.47656 9.70625 2.13107C10.4237 2.61643 10.7491 3.50736 10.5129 4.34071L10.0598 5.93836H11.6535C11.9911 5.93836 12.3242 6.01723 12.6262 6.16818L12.8312 6.27039C13.619 6.66425 14.1786 7.40284 14.3443 8.26779C14.4162 8.64349 14.3729 9.03241 14.2199 9.38303L12.882 12.4501C12.4144 13.5218 11.356 14.2143 10.1867 14.2144H4.53242V6.83485L6.83906 2.79774ZM9.1457 2.9592C8.66029 2.63097 7.99827 2.78504 7.70755 3.29383L5.53242 7.10047V13.2144H10.1867C10.9584 13.2143 11.6568 12.757 11.9654 12.0497L13.3033 8.98329C13.3756 8.81753 13.3959 8.63355 13.3618 8.45594C13.2548 7.89689 12.8931 7.41949 12.384 7.16493L12.1789 7.06271C12.0158 6.98119 11.8359 6.93836 11.6535 6.93836H8.73685L9.55065 4.06792C9.66919 3.64981 9.50567 3.2027 9.1457 2.9592Z" fill="#2F9752"/>
</svg>
